<?xml version="1.0" encoding="UTF-8"?>
<!DOCTYPE svg PUBLIC "-//W3C//DTD SVG 1.1//EN" "http://www.w3.org/Graphics/SVG/1.1/DTD/svg11.dtd">
<svg xmlns="http://www.w3.org/2000/svg" version="1.1" width="57px" height="57px" style="shape-rendering:geometricPrecision; text-rendering:geometricPrecision; image-rendering:optimizeQuality; fill-rule:evenodd; clip-rule:evenodd" xmlns:xlink="http://www.w3.org/1999/xlink">
<g><path style="opacity:1" fill="#00046e" d="M 13.5,-0.5 C 16.1667,-0.5 18.8333,-0.5 21.5,-0.5C 25.6577,3.83393 29.3243,8.5006 32.5,13.5C 30.1667,13.5 27.8333,13.5 25.5,13.5C 25.5,15.5 25.5,17.5 25.5,19.5C 24.8333,18.8333 24.1667,18.1667 23.5,17.5C 23.7678,15.901 23.4345,14.5676 22.5,13.5C 20.5389,11.0365 18.3722,8.70319 16,6.5C 15.1529,4.14566 14.3195,1.81233 13.5,-0.5 Z"/></g>
<g><path style="opacity:1" fill="#00000e" d="M 41.5,-0.5 C 46.5,-0.5 51.5,-0.5 56.5,-0.5C 56.5,6.16667 56.5,12.8333 56.5,19.5C 55.0613,17.6397 53.3947,15.973 51.5,14.5C 51.5,14.1667 51.5,13.8333 51.5,13.5C 48.5547,8.55492 45.2214,3.88825 41.5,-0.5 Z"/></g>
<g><path style="opacity:1" fill="#004089" d="M -0.5,-0.5 C 2.5,-0.5 5.5,-0.5 8.5,-0.5C 7.97168,0.72065 7.30501,1.88732 6.5,3C 9.33555,6.66676 12.3355,10.1668 15.5,13.5C 14.1667,13.5 12.8333,13.5 11.5,13.5C 11.5,15.1667 11.5,16.8333 11.5,18.5C 9.93819,18.2671 8.60486,17.6005 7.5,16.5C 7.5,15.5 7.5,14.5 7.5,13.5C 6.5,13.5 5.5,13.5 4.5,13.5C 3.16667,11.5 1.5,9.83333 -0.5,8.5C -0.5,5.5 -0.5,2.5 -0.5,-0.5 Z"/></g>
<g><path style="opacity:1" fill="#020036" d="M 31.5,-0.5 C 34.8333,-0.5 38.1667,-0.5 41.5,-0.5C 45.2214,3.88825 48.5547,8.55492 51.5,13.5C 48.5,13.5 45.5,13.5 42.5,13.5C 39.5379,8.28386 35.8713,3.61719 31.5,-0.5 Z"/></g>
<g><path style="opacity:1" fill="#00217c" d="M 8.5,-0.5 C 10.1667,-0.5 11.8333,-0.5 13.5,-0.5C 14.3195,1.81233 15.1529,4.14566 16,6.5C 18.3722,8.70319 20.5389,11.0365 22.5,13.5C 20.1667,13.5 17.8333,13.5 15.5,13.5C 12.3355,10.1668 9.33555,6.66676 6.5,3C 7.30501,1.88732 7.97168,0.72065 8.5,-0.5 Z"/></g>
<g><path style="opacity:1" fill="#00025d" d="M 21.5,-0.5 C 24.8333,-0.5 28.1667,-0.5 31.5,-0.5C 35.8713,3.61719 39.5379,8.28386 42.5,13.5C 41.5,13.5 40.5,13.5 39.5,13.5C 39.5,19.8333 39.5,26.1667 39.5,32.5C 37.8333,31.5 36.5,30.1667 35.5,28.5C 36.4345,27.4324 36.7678,26.099 36.5,24.5C 33.8333,24.5 31.1667,24.5 28.5,24.5C 28.5,22.1667 28.5,19.8333 28.5,17.5C 31.5,17.5 34.5,17.5 37.5,17.5C 37.5,16.1667 37.5,14.8333 37.5,13.5C 35.8333,13.5 34.1667,13.5 32.5,13.5C 29.3243,8.5006 25.6577,3.83393 21.5,-0.5 Z"/></g>
<g><path style="opacity:1" fill="#fefffe" d="M 4.5,13.5 C 5.5,13.5 6.5,13.5 7.5,13.5C 7.5,14.5 7.5,15.5 7.5,16.5C 7.82572,24.6841 7.49239,32.6841 6.5,40.5C 4.95186,40.1788 4.28519,39.1788 4.5,37.5C 4.5,29.5 4.5,21.5 4.5,13.5 Z"/></g>
<g><path style="opacity:1" fill="#fefffe" d="M 15.5,13.5 C 17.8333,13.5 20.1667,13.5 22.5,13.5C 23.4345,14.5676 23.7678,15.901 23.5,17.5C 20.5,17.5 17.5,17.5 14.5,17.5C 14.5,19.8333 14.5,22.1667 14.5,24.5C 17.1667,24.5 19.8333,24.5 22.5,24.5C 22.5,25.5 22.5,26.5 22.5,27.5C 20.0521,28.4731 17.3854,28.8064 14.5,28.5C 14.5,31.1667 14.5,33.8333 14.5,36.5C 17.5,36.5 20.5,36.5 23.5,36.5C 23.5,37.8333 23.5,39.1667 23.5,40.5C 22.5,40.5 21.5,40.5 20.5,40.5C 17.5,40.5 14.5,40.5 11.5,40.5C 11.5,33.1667 11.5,25.8333 11.5,18.5C 11.5,16.8333 11.5,15.1667 11.5,13.5C 12.8333,13.5 14.1667,13.5 15.5,13.5 Z"/></g>
<g><path style="opacity:1" fill="#fefffe" d="M 32.5,13.5 C 34.1667,13.5 35.8333,13.5 37.5,13.5C 37.5,14.8333 37.5,16.1667 37.5,17.5C 34.5,17.5 31.5,17.5 28.5,17.5C 28.5,19.8333 28.5,22.1667 28.5,24.5C 31.1667,24.5 33.8333,24.5 36.5,24.5C 36.7678,26.099 36.4345,27.4324 35.5,28.5C 33.1667,28.5 30.8333,28.5 28.5,28.5C 28.5,31.1667 28.5,33.8333 28.5,36.5C 31.5,36.5 34.5,36.5 37.5,36.5C 37.8432,38.4832 37.1765,39.8166 35.5,40.5C 32.5,40.5 29.5,40.5 26.5,40.5C 25.5184,37.0381 25.185,33.3714 25.5,29.5C 25.5,26.1667 25.5,22.8333 25.5,19.5C 25.5,17.5 25.5,15.5 25.5,13.5C 27.8333,13.5 30.1667,13.5 32.5,13.5 Z"/></g>
<g><path style="opacity:1" fill="#fefffe" d="M 42.5,13.5 C 45.5,13.5 48.5,13.5 51.5,13.5C 51.5,13.8333 51.5,14.1667 51.5,14.5C 51.7373,15.791 51.404,16.791 50.5,17.5C 47.8333,17.5 45.1667,17.5 42.5,17.5C 42.5,19.8333 42.5,22.1667 42.5,24.5C 45.6981,23.9644 48.3647,24.631 50.5,26.5C 48.3647,28.369 45.6981,29.0356 42.5,28.5C 42.5,31.1667 42.5,33.8333 42.5,36.5C 45.5,36.5 48.5,36.5 51.5,36.5C 51.5,37.8333 51.5,39.1667 51.5,40.5C 50.1667,40.5 48.8333,40.5 47.5,40.5C 44.8333,40.5 42.1667,40.5 39.5,40.5C 39.5,37.8333 39.5,35.1667 39.5,32.5C 39.5,26.1667 39.5,19.8333 39.5,13.5C 40.5,13.5 41.5,13.5 42.5,13.5 Z"/></g>
<g><path style="opacity:1" fill="#00004d" d="M 50.5,17.5 C 51.6115,20.8384 53.6115,23.5051 56.5,25.5C 56.5,27.5 56.5,29.5 56.5,31.5C 54.5,29.8333 52.5,28.1667 50.5,26.5C 48.3647,24.631 45.6981,23.9644 42.5,24.5C 42.5,22.1667 42.5,19.8333 42.5,17.5C 45.1667,17.5 47.8333,17.5 50.5,17.5 Z"/></g>
<g><path style="opacity:1" fill="#000033" d="M 51.5,14.5 C 53.3947,15.973 55.0613,17.6397 56.5,19.5C 56.5,21.5 56.5,23.5 56.5,25.5C 53.6115,23.5051 51.6115,20.8384 50.5,17.5C 51.404,16.791 51.7373,15.791 51.5,14.5 Z"/></g>
<g><path style="opacity:1" fill="#005e95" d="M -0.5,8.5 C 1.5,9.83333 3.16667,11.5 4.5,13.5C 4.5,21.5 4.5,29.5 4.5,37.5C 2.20537,36.8645 0.538701,35.5311 -0.5,33.5C -0.5,25.1667 -0.5,16.8333 -0.5,8.5 Z"/></g>
<g><path style="opacity:1" fill="#013a86" d="M 23.5,17.5 C 24.1667,18.1667 24.8333,18.8333 25.5,19.5C 25.5,22.8333 25.5,26.1667 25.5,29.5C 24.5,28.8333 23.5,28.1667 22.5,27.5C 22.5,26.5 22.5,25.5 22.5,24.5C 19.8333,24.5 17.1667,24.5 14.5,24.5C 14.5,22.1667 14.5,19.8333 14.5,17.5C 17.5,17.5 20.5,17.5 23.5,17.5 Z"/></g>
<g><path style="opacity:1" fill="#00036a" d="M 50.5,26.5 C 52.5,28.1667 54.5,29.8333 56.5,31.5C 56.5,37.5 56.5,43.5 56.5,49.5C 53.2148,46.8815 50.2148,43.8815 47.5,40.5C 48.8333,40.5 50.1667,40.5 51.5,40.5C 51.5,39.1667 51.5,37.8333 51.5,36.5C 48.5,36.5 45.5,36.5 42.5,36.5C 42.5,33.8333 42.5,31.1667 42.5,28.5C 45.6981,29.0356 48.3647,28.369 50.5,26.5 Z"/></g>
<g><path style="opacity:1" fill="#005f96" d="M 7.5,16.5 C 8.60486,17.6005 9.93819,18.2671 11.5,18.5C 11.5,25.8333 11.5,33.1667 11.5,40.5C 14.5,40.5 17.5,40.5 20.5,40.5C 25.8321,44.8527 30.8321,50.1861 35.5,56.5C 30.5,56.5 25.5,56.5 20.5,56.5C 15.4897,51.4882 10.823,46.1549 6.5,40.5C 7.49239,32.6841 7.82572,24.6841 7.5,16.5 Z"/></g>
<g><path style="opacity:1" fill="#006598" d="M -0.5,33.5 C 0.538701,35.5311 2.20537,36.8645 4.5,37.5C 4.28519,39.1788 4.95186,40.1788 6.5,40.5C 10.823,46.1549 15.4897,51.4882 20.5,56.5C 13.5,56.5 6.5,56.5 -0.5,56.5C -0.5,48.8333 -0.5,41.1667 -0.5,33.5 Z"/></g>
<g><path style="opacity:1" fill="#005893" d="M 22.5,27.5 C 23.5,28.1667 24.5,28.8333 25.5,29.5C 25.185,33.3714 25.5184,37.0381 26.5,40.5C 31.4299,45.4412 36.0965,50.7746 40.5,56.5C 38.8333,56.5 37.1667,56.5 35.5,56.5C 30.8321,50.1861 25.8321,44.8527 20.5,40.5C 21.5,40.5 22.5,40.5 23.5,40.5C 23.5,39.1667 23.5,37.8333 23.5,36.5C 20.5,36.5 17.5,36.5 14.5,36.5C 14.5,33.8333 14.5,31.1667 14.5,28.5C 17.3854,28.8064 20.0521,28.4731 22.5,27.5 Z"/></g>
<g><path style="opacity:1" fill="#004f8f" d="M 26.5,40.5 C 29.5,40.5 32.5,40.5 35.5,40.5C 40.5539,45.2233 44.8872,50.5566 48.5,56.5C 45.8333,56.5 43.1667,56.5 40.5,56.5C 36.0965,50.7746 31.4299,45.4412 26.5,40.5 Z"/></g>
<g><path style="opacity:1" fill="#013584" d="M 35.5,28.5 C 36.5,30.1667 37.8333,31.5 39.5,32.5C 39.5,35.1667 39.5,37.8333 39.5,40.5C 42.1667,40.5 44.8333,40.5 47.5,40.5C 50.2148,43.8815 53.2148,46.8815 56.5,49.5C 56.5,51.8333 56.5,54.1667 56.5,56.5C 53.8333,56.5 51.1667,56.5 48.5,56.5C 44.8872,50.5566 40.5539,45.2233 35.5,40.5C 37.1765,39.8166 37.8432,38.4832 37.5,36.5C 34.5,36.5 31.5,36.5 28.5,36.5C 28.5,33.8333 28.5,31.1667 28.5,28.5C 30.8333,28.5 33.1667,28.5 35.5,28.5 Z"/></g>
</svg>
