<?xml version="1.0" encoding="UTF-8"?>
<svg id="Ebene_1" data-name="Ebene 1" xmlns="http://www.w3.org/2000/svg" viewBox="0 0 2362 827.1">
  <defs>
    <style>
      .cls-1 {
        fill: #003063;
      }

      .cls-2 {
        fill: #97ddea;
      }

      .cls-3 {
        fill: #2ebad5;
      }

      .cls-4 {
        fill: #62cbe0;
      }
    </style>
  </defs>
  <polygon class="cls-4" points="702.3 360.07 563.27 221.03 530.92 510.31 917.1 574.87 702.3 360.07"/>
  <polygon class="cls-1" points="937.6 345.81 716.58 345.81 937.6 566.84 937.6 345.81"/>
  <polygon class="cls-2" points="563.27 221.03 221.03 372.54 530.92 510.31 563.27 221.03"/>
  <polygon class="cls-3" points="530.91 510.31 742.41 606.06 917.1 574.87 530.91 510.31"/>
  <path class="cls-1" d="m2037.26,386.96h-40.99v138.9h38.71c16.48,0,29.49-5.85,39.04-17.57,9.54-11.71,14.31-29.49,14.31-53.35,0-21.03-4.34-37.62-13.01-49.77-8.68-12.14-21.36-18.22-38.06-18.22m0,179.89h-91.73v-221.2h92.38c22.12,0,40.93,4.66,56.44,13.99,15.5,9.33,27.16,22.18,34.97,38.55,7.81,16.38,11.71,35.3,11.71,56.76,0,22.77-4.23,42.56-12.69,59.37-8.46,16.81-20.49,29.77-36.11,38.87-15.62,9.11-33.94,13.66-54.98,13.66m-121.66,0h-152.56v-221.2h50.75v181.52h95.96l5.85,39.69Zm-360.1-109.95c0,21.26,5.26,38.55,15.78,51.89,10.52,13.34,24.77,20.01,42.78,20.01,11.06,0,21.09-2.77,30.09-8.3,9-5.53,16.1-13.83,21.31-24.89,5.2-11.06,7.81-24.61,7.81-40.66,0-13.66-2.39-25.91-7.16-36.76-4.77-10.84-11.55-19.36-20.33-25.54-8.78-6.18-19.03-9.27-30.74-9.27-10.85,0-20.77,3.04-29.77,9.11-9,6.07-16.21,14.69-21.63,25.86-5.42,11.17-8.13,24.02-8.13,38.55m58.88-116.13c22.98,0,42.88,5.04,59.69,15.13,16.8,10.08,29.65,23.8,38.55,41.15,8.89,17.35,13.34,36.65,13.34,57.9,0,22.56-4.72,42.61-14.15,60.18-9.43,17.57-22.61,31.29-39.52,41.15-16.92,9.87-36.22,14.91-57.9,15.13-22.77,0-42.56-5.04-59.37-15.13-16.81-10.08-29.71-23.8-38.71-41.15-9-17.35-13.5-36.65-13.5-57.9,0-22.33,4.72-42.29,14.15-59.86,9.43-17.56,22.61-31.34,39.52-41.31,16.92-9.97,36.21-15.07,57.9-15.29m-143.78,137.6h-74.49v88.48h-50.75v-220.88h134.67l5.85,39.69h-89.78v52.7h68.64l5.86,40.01Zm-229.66-132.72h50.75v221.2h-50.75v-221.2Zm-119.71,127.52h-36.76v53.02h35.46c10.41,0,18.76-2.22,25.05-6.67,6.29-4.44,9.43-10.68,9.43-18.71,0-8.67-2.98-15.45-8.95-20.33-5.97-4.88-14.04-7.32-24.23-7.32m-10.08-86.53h-26.67v45.87h22.12c11.06,0,20.11-1.84,27.16-5.53,7.05-3.69,10.57-9.22,10.57-16.59,0-15.83-11.06-23.75-33.18-23.75m9.76,180.21h-87.18v-221.2h81.65c24.5,0,44.29,5.15,59.37,15.45,15.07,10.3,22.61,26.08,22.61,47.33,0,13.45-7.37,26.67-22.12,39.69,9.76,6.07,17.51,13.56,23.26,22.45,5.74,8.89,8.62,19.08,8.62,30.58,0,21.91-8.03,38.33-24.07,49.28-16.05,10.95-36.76,16.43-62.13,16.43"/>
</svg>