<?xml version="1.0" encoding="utf-8"?>
<!-- Generator: Adobe Illustrator 23.0.2, SVG Export Plug-In . SVG Version: 6.00 Build 0)  -->
<!DOCTYPE svg PUBLIC "-//W3C//DTD SVG 1.1//EN" "http://www.w3.org/Graphics/SVG/1.1/DTD/svg11.dtd" [
	<!ENTITY ns_extend "http://ns.adobe.com/Extensibility/1.0/">
	<!ENTITY ns_ai "http://ns.adobe.com/AdobeIllustrator/10.0/">
	<!ENTITY ns_graphs "http://ns.adobe.com/Graphs/1.0/">
	<!ENTITY ns_vars "http://ns.adobe.com/Variables/1.0/">
	<!ENTITY ns_imrep "http://ns.adobe.com/ImageReplacement/1.0/">
	<!ENTITY ns_sfw "http://ns.adobe.com/SaveForWeb/1.0/">
	<!ENTITY ns_custom "http://ns.adobe.com/GenericCustomNamespace/1.0/">
	<!ENTITY ns_adobe_xpath "http://ns.adobe.com/XPath/1.0/">
]>
<svg version="1.1" id="Ebene_1" xmlns:x="&ns_extend;" xmlns:i="&ns_ai;" xmlns:graph="&ns_graphs;"
	 xmlns="http://www.w3.org/2000/svg" xmlns:xlink="http://www.w3.org/1999/xlink" x="0px" y="0px" width="841.89px"
	 height="595.28px" viewBox="0 0 841.89 595.28" style="enable-background:new 0 0 841.89 595.28;" xml:space="preserve">
<style type="text/css">
	.st0{fill:#045D67;}
	.st1{fill:#4E878F;}
</style>
<metadata>
	<sfw  xmlns="&ns_sfw;">
		<slices></slices>
		<sliceSourceBounds  bottomLeftOrigin="true" height="16383" width="16383" x="-7770" y="-8490"></sliceSourceBounds>
	</sfw>
</metadata>
<g>
	<g>
		<path class="st0" d="M150.83,353.36c1.4,0.58,2.78,1.45,4.14,2.61l-3.1,3.63c-1.81-1.51-3.66-2.27-5.56-2.27
			c-2.19,0-3.92,0.98-5.17,2.95c-1.26,1.97-1.89,5.16-1.89,9.58c0,4.32,0.63,7.48,1.89,9.48c1.26,2,3,3,5.22,3
			c1.16,0,2.18-0.22,3.05-0.65c0.87-0.44,1.84-1.07,2.9-1.91l3,3.58c-1.13,1.16-2.47,2.12-4.02,2.88c-1.55,0.76-3.29,1.14-5.22,1.14
			c-2.68,0-5.02-0.65-7.04-1.96c-2.02-1.31-3.58-3.27-4.69-5.9c-1.11-2.63-1.67-5.84-1.67-9.65c0-3.74,0.58-6.92,1.74-9.53
			c1.16-2.61,2.74-4.57,4.74-5.88c2-1.31,4.27-1.96,6.82-1.96C147.81,352.49,149.43,352.78,150.83,353.36z"/>
		<path class="st0" d="M176.98,359.26l-8.42,17.03v10.35h-6.05v-10.3l-8.32-17.07h6.43l5.03,12.48l5.03-12.48H176.98z"/>
		<path class="st0" d="M199.06,374.14c1.14,0.98,1.72,2.47,1.72,4.47c0,2.9-1,4.97-3,6.19c-2,1.23-4.76,1.84-8.27,1.84h-8.42v-27.38
			h7.45c3.55,0,6.29,0.57,8.22,1.72c1.93,1.15,2.9,2.93,2.9,5.35c0,1.64-0.46,2.92-1.38,3.82c-0.92,0.9-2.17,1.56-3.75,1.98
			C196.4,372.48,197.91,373.15,199.06,374.14z M187.13,363.57v6.72h2.37c1.32,0,2.35-0.29,3.07-0.87c0.73-0.58,1.09-1.43,1.09-2.56
			c0-1.19-0.38-2.04-1.14-2.54c-0.76-0.5-1.91-0.75-3.46-0.75H187.13z M193.3,381.39c0.85-0.56,1.28-1.59,1.28-3.07
			c0-2.64-1.52-3.97-4.55-3.97h-2.9v7.88h2.47C191.21,382.24,192.45,381.95,193.3,381.39z"/>
		<path class="st0" d="M222.35,359.26l-0.63,4.35h-9.24v6.92h8.08v4.31h-8.08v7.4h9.87v4.4h-15.91v-27.38H222.35z"/>
		<path class="st0" d="M237.15,375.95h-2.66v10.69h-6.05v-27.38h8.17c3.68,0,6.42,0.69,8.25,2.08c1.82,1.39,2.73,3.42,2.73,6.1
			c0,1.81-0.4,3.31-1.21,4.5c-0.81,1.19-2.06,2.16-3.77,2.9l6.63,11.8h-6.67L237.15,375.95z M234.49,371.79h2.66
			c1.42,0,2.49-0.34,3.22-1.02c0.73-0.68,1.09-1.76,1.09-3.24c0-1.39-0.39-2.4-1.16-3.05c-0.77-0.64-1.98-0.97-3.63-0.97h-2.18
			V371.79z"/>
		<path class="st0" d="M280.07,353.51c1.6,0.68,3.07,1.71,4.43,3.1l-3,3.43c-1.06-0.93-2.13-1.63-3.19-2.08
			c-1.06-0.45-2.21-0.68-3.43-0.68c-1.35,0-2.44,0.35-3.26,1.06c-0.82,0.71-1.23,1.69-1.23,2.95c0,0.84,0.17,1.55,0.51,2.13
			c0.34,0.58,0.94,1.12,1.81,1.62c0.87,0.5,2.13,1.04,3.77,1.62c3,1.1,5.23,2.4,6.7,3.92c1.47,1.52,2.2,3.69,2.2,6.53
			c0,1.97-0.47,3.72-1.4,5.27c-0.94,1.55-2.28,2.77-4.04,3.65c-1.76,0.89-3.81,1.33-6.17,1.33c-4.42,0-8.11-1.51-11.08-4.55
			l3.19-3.53c1.22,1.06,2.44,1.87,3.65,2.42c1.21,0.55,2.54,0.82,3.99,0.82c1.64,0,2.94-0.45,3.89-1.35
			c0.95-0.9,1.43-2.14,1.43-3.72c0-1.42-0.4-2.54-1.21-3.36c-0.81-0.82-2.34-1.62-4.6-2.39c-3.22-1.13-5.55-2.47-6.97-4.01
			c-1.42-1.55-2.13-3.53-2.13-5.95c0-1.77,0.45-3.36,1.35-4.76c0.9-1.4,2.16-2.5,3.77-3.29c1.61-0.79,3.42-1.18,5.42-1.18
			C276.62,352.49,278.48,352.83,280.07,353.51z"/>
		<path class="st0" d="M306.89,359.26l-0.63,4.35h-9.24v6.92h8.08v4.31h-8.08v7.4h9.87v4.4h-15.91v-27.38H306.89z"/>
		<path class="st0" d="M327.06,359.43c1.26,0.5,2.47,1.25,3.63,2.25l-2.85,3.39c-0.77-0.64-1.54-1.12-2.3-1.43
			c-0.76-0.31-1.57-0.46-2.44-0.46c-1.81,0-3.23,0.77-4.26,2.3c-1.03,1.53-1.55,3.99-1.55,7.38c0,6.51,1.93,9.77,5.8,9.77
			c1,0,1.89-0.18,2.66-0.56c0.77-0.37,1.58-0.91,2.42-1.62l2.85,3.39c-1,1.03-2.19,1.86-3.58,2.49c-1.39,0.63-2.97,0.94-4.74,0.94
			c-3.55,0-6.38-1.23-8.51-3.68c-2.13-2.45-3.19-6.03-3.19-10.74c0-3.03,0.5-5.61,1.5-7.74c1-2.13,2.39-3.73,4.16-4.81
			c1.77-1.08,3.79-1.62,6.05-1.62C324.35,358.68,325.81,358.93,327.06,359.43z"/>
		<path class="st0" d="M355.41,378.27c0,2.61-0.88,4.77-2.64,6.46c-1.76,1.69-4.26,2.54-7.52,2.54c-3.29,0-5.8-0.82-7.52-2.47
			c-1.73-1.64-2.59-3.82-2.59-6.53v-19.01h6.05v18.72c0,1.58,0.33,2.77,0.99,3.58c0.66,0.81,1.68,1.21,3.07,1.21
			c2.74,0,4.11-1.6,4.11-4.79v-18.72h6.05V378.27z"/>
		<path class="st0" d="M371.22,375.95h-2.66v10.69h-6.05v-27.38h8.17c3.68,0,6.42,0.69,8.25,2.08c1.82,1.39,2.73,3.42,2.73,6.1
			c0,1.81-0.4,3.31-1.21,4.5c-0.81,1.19-2.06,2.16-3.77,2.9l6.63,11.8h-6.67L371.22,375.95z M368.56,371.79h2.66
			c1.42,0,2.49-0.34,3.22-1.02c0.73-0.68,1.09-1.76,1.09-3.24c0-1.39-0.39-2.4-1.16-3.05c-0.77-0.64-1.98-0.97-3.63-0.97h-2.18
			V371.79z"/>
		<path class="st0" d="M393.96,359.26v27.38h-6.05v-27.38H393.96z"/>
		<path class="st0" d="M418.62,359.26l-0.63,4.64h-6.43v22.73h-6.05v-22.73h-6.82v-4.64H418.62z"/>
		<path class="st0" d="M442.32,359.26l-8.42,17.03v10.35h-6.05v-10.3l-8.32-17.07h6.43l5.03,12.48l5.03-12.48H442.32z"/>
		<path class="st0" d="M464.14,359.26v27.38h-6.05v-27.38H464.14z"/>
		<path class="st0" d="M491.75,386.64h-7.59l-7.88-21.91c0.29,2.35,0.5,4.31,0.63,5.85c0.13,1.55,0.19,3.39,0.19,5.51v10.54h-5.32
			v-27.38h7.5l7.98,21.91c-0.55-3.35-0.82-6.75-0.82-10.21v-11.7h5.32V386.64z"/>
		<path class="st0" d="M528.08,359.26l-0.63,4.64h-6.43v22.73h-6.05v-22.73h-6.82v-4.64H528.08z"/>
		<path class="st0" d="M552.6,359.26v27.38h-6.05v-11.95h-8.03v11.95h-6.05v-27.38h6.05v10.69h8.03v-10.69H552.6z"/>
		<path class="st0" d="M576.16,359.26l-0.63,4.35h-9.24v6.92h8.08v4.31h-8.08v7.4h9.87v4.4h-15.91v-27.38H576.16z"/>
		<path class="st0" d="M610.11,386.64l-1.84-7.79h-9.67l-1.84,7.79h-6.34l9.29-33.42h7.64l9.24,33.42H610.11z M599.66,374.11h7.55
			L603.43,358L599.66,374.11z"/>
		<path class="st0" d="M640.39,361.97l-3.1,3.24c-0.9-0.74-1.76-1.27-2.56-1.6c-0.81-0.32-1.73-0.48-2.76-0.48
			c-2,0-3.57,0.77-4.72,2.32c-1.14,1.55-1.72,4.03-1.72,7.45c0,3.68,0.44,6.25,1.33,7.72c0.89,1.47,2.28,2.2,4.18,2.2
			c1.35,0,2.58-0.31,3.68-0.92v-6.63h-3.48l-0.58-4.31h9.82v13.5c-1.32,0.9-2.79,1.6-4.4,2.08c-1.61,0.48-3.27,0.73-4.98,0.73
			c-7.87,0-11.8-4.79-11.8-14.37c0-3.03,0.54-5.61,1.62-7.74c1.08-2.13,2.56-3.74,4.45-4.84c1.89-1.1,3.99-1.64,6.31-1.64
			C635.07,358.68,637.97,359.78,640.39,361.97z"/>
		<path class="st0" d="M663.02,359.26l-0.63,4.35h-9.24v6.92h8.08v4.31h-8.08v7.4h9.87v4.4h-15.91v-27.38H663.02z"/>
	</g>
	<path class="st0" d="M311.87,425.91v-4.84h13.4v4.84H311.87z"/>
	<g>
		<path class="st0" d="M153.01,414.28c2.05,2.4,3.07,5.94,3.07,10.62c0,4.64-1.02,8.2-3.07,10.67c-2.05,2.47-4.93,3.7-8.63,3.7
			c-3.71,0-6.59-1.22-8.63-3.65c-2.05-2.43-3.07-6.01-3.07-10.71c0-4.58,1.03-8.09,3.1-10.54c2.06-2.45,4.93-3.68,8.61-3.68
			C148.08,410.68,150.96,411.88,153.01,414.28z M140.31,417.35c-0.9,1.48-1.35,4-1.35,7.55c0,3.61,0.44,6.17,1.33,7.67
			c0.89,1.5,2.25,2.25,4.09,2.25c1.87,0,3.24-0.74,4.11-2.22c0.87-1.48,1.31-4.05,1.31-7.69c0-3.55-0.44-6.06-1.33-7.55
			c-0.89-1.48-2.25-2.22-4.09-2.22C142.57,415.13,141.22,415.87,140.31,417.35z"/>
		<path class="st0" d="M177.8,411.26l-0.68,4.35h-8.8v7.55h7.64v4.4h-7.64v11.08h-6.05v-27.38H177.8z"/>
		<path class="st0" d="M200.63,405.21v28.3h11.9l-0.68,5.13h-17.51v-33.42H200.63z"/>
		<path class="st0" d="M230.76,438.63l-1.45-6.09h-7.93l-1.4,6.09h-6.09l7.93-27.38h7.26l7.93,27.38H230.76z M222.44,428.14h5.85
			l-2.95-12.48L222.44,428.14z"/>
		<path class="st0" d="M249.87,427.95h-2.66v10.69h-6.05v-27.38h8.17c3.68,0,6.42,0.69,8.25,2.08c1.82,1.39,2.73,3.42,2.73,6.1
			c0,1.81-0.4,3.31-1.21,4.5c-0.81,1.19-2.06,2.16-3.77,2.9l6.63,11.8h-6.67L249.87,427.95z M247.21,423.79h2.66
			c1.42,0,2.49-0.34,3.22-1.02c0.73-0.68,1.09-1.76,1.09-3.24c0-1.39-0.39-2.4-1.16-3.05c-0.77-0.64-1.98-0.97-3.63-0.97h-2.18
			V423.79z"/>
		<path class="st0" d="M285.66,413.97l-3.1,3.24c-0.9-0.74-1.76-1.27-2.56-1.6c-0.81-0.32-1.73-0.48-2.76-0.48
			c-2,0-3.57,0.77-4.72,2.32c-1.14,1.55-1.72,4.03-1.72,7.45c0,3.68,0.44,6.25,1.33,7.72c0.89,1.47,2.28,2.2,4.18,2.2
			c1.35,0,2.58-0.31,3.68-0.92v-6.63h-3.48l-0.58-4.31h9.82v13.5c-1.32,0.9-2.79,1.6-4.4,2.08c-1.61,0.48-3.27,0.73-4.98,0.73
			c-7.87,0-11.8-4.79-11.8-14.37c0-3.03,0.54-5.61,1.62-7.74c1.08-2.13,2.56-3.74,4.45-4.84c1.89-1.1,3.99-1.64,6.31-1.64
			C280.34,410.68,283.24,411.77,285.66,413.97z"/>
		<path class="st0" d="M308.3,411.26l-0.63,4.35h-9.24v6.92h8.08v4.31h-8.08v7.4h9.87v4.4h-15.91v-27.38H308.3z"/>
		<path class="st0" d="M344.6,405.5c1.6,0.68,3.07,1.71,4.43,3.1l-3,3.43c-1.06-0.93-2.13-1.63-3.19-2.08
			c-1.06-0.45-2.21-0.68-3.43-0.68c-1.35,0-2.44,0.35-3.26,1.06c-0.82,0.71-1.23,1.69-1.23,2.95c0,0.84,0.17,1.55,0.51,2.13
			c0.34,0.58,0.94,1.12,1.81,1.62c0.87,0.5,2.13,1.04,3.77,1.62c3,1.1,5.23,2.4,6.7,3.92c1.47,1.52,2.2,3.69,2.2,6.53
			c0,1.97-0.47,3.72-1.4,5.27c-0.94,1.55-2.28,2.77-4.04,3.65c-1.76,0.89-3.81,1.33-6.17,1.33c-4.42,0-8.11-1.51-11.08-4.55
			l3.19-3.53c1.22,1.06,2.44,1.87,3.65,2.42c1.21,0.55,2.54,0.82,3.99,0.82c1.64,0,2.94-0.45,3.89-1.35
			c0.95-0.9,1.43-2.14,1.43-3.72c0-1.42-0.4-2.54-1.21-3.36c-0.81-0.82-2.34-1.62-4.6-2.39c-3.22-1.13-5.55-2.47-6.97-4.01
			c-1.42-1.55-2.13-3.53-2.13-5.95c0-1.77,0.45-3.36,1.35-4.76c0.9-1.4,2.16-2.5,3.77-3.29c1.61-0.79,3.42-1.18,5.42-1.18
			C341.14,404.49,343,404.82,344.6,405.5z"/>
		<path class="st0" d="M370.11,411.43c1.26,0.5,2.47,1.25,3.63,2.25l-2.85,3.39c-0.77-0.64-1.54-1.12-2.3-1.43
			c-0.76-0.31-1.57-0.46-2.44-0.46c-1.81,0-3.23,0.77-4.26,2.3c-1.03,1.53-1.55,3.99-1.55,7.38c0,6.51,1.93,9.77,5.8,9.77
			c1,0,1.89-0.18,2.66-0.56c0.77-0.37,1.58-0.91,2.42-1.62l2.85,3.39c-1,1.03-2.19,1.86-3.58,2.49c-1.39,0.63-2.97,0.94-4.74,0.94
			c-3.55,0-6.38-1.23-8.51-3.68c-2.13-2.45-3.19-6.03-3.19-10.74c0-3.03,0.5-5.61,1.5-7.74c1-2.13,2.39-3.73,4.16-4.81
			c1.77-1.08,3.79-1.62,6.05-1.62C367.4,410.68,368.85,410.93,370.11,411.43z"/>
		<path class="st0" d="M392.26,438.63l-1.45-6.09h-7.93l-1.4,6.09h-6.09l7.93-27.38h7.26l7.93,27.38H392.26z M383.94,428.14h5.85
			l-2.95-12.48L383.94,428.14z"/>
		<path class="st0" d="M408.71,411.26v22.54h10.21l-0.63,4.84h-15.62v-27.38H408.71z"/>
		<path class="st0" d="M439.71,411.26l-0.63,4.35h-9.24v6.92h8.08v4.31h-8.08v7.4h9.87v4.4H423.8v-27.38H439.71z"/>
		<path class="st0" d="M473.66,438.63l-1.84-7.79h-9.67l-1.84,7.79h-6.34l9.29-33.42h7.64l9.24,33.42H473.66z M463.22,426.11h7.55
			L466.99,410L463.22,426.11z"/>
		<path class="st0" d="M501.33,414.14c2.45,1.92,3.68,5.46,3.68,10.62c0,5.09-1.22,8.68-3.65,10.76c-2.44,2.08-5.59,3.12-9.46,3.12
			h-7.59v-27.38h7.11C495.57,411.26,498.88,412.22,501.33,414.14z M490.35,415.66v18.57h1.93c2.1,0,3.7-0.67,4.81-2.01
			c1.11-1.34,1.67-3.83,1.67-7.47c0-2.48-0.27-4.39-0.82-5.71c-0.55-1.32-1.3-2.22-2.25-2.68c-0.95-0.47-2.14-0.7-3.55-0.7H490.35z"
			/>
		<path class="st0" d="M530.06,411.26l-7.3,27.38h-7.5l-7.55-27.38H514l5.08,22.54l4.93-22.54H530.06z"/>
		<path class="st0" d="M550.18,411.26l-0.63,4.35h-9.24v6.92h8.08v4.31h-8.08v7.4h9.87v4.4h-15.91v-27.38H550.18z"/>
		<path class="st0" d="M564.98,427.95h-2.66v10.69h-6.05v-27.38h8.17c3.68,0,6.42,0.69,8.25,2.08c1.82,1.39,2.73,3.42,2.73,6.1
			c0,1.81-0.4,3.31-1.21,4.5c-0.81,1.19-2.06,2.16-3.77,2.9l6.63,11.8h-6.68L564.98,427.95z M562.32,423.79h2.66
			c1.42,0,2.49-0.34,3.22-1.02c0.73-0.68,1.09-1.76,1.09-3.24c0-1.39-0.39-2.4-1.16-3.05c-0.77-0.64-1.98-0.97-3.63-0.97h-2.18
			V423.79z"/>
		<path class="st0" d="M594.53,411.55c1.45,0.58,2.76,1.45,3.92,2.61l-2.8,3.24c-1.81-1.51-3.73-2.27-5.76-2.27
			c-1.16,0-2.08,0.26-2.76,0.77c-0.68,0.52-1.02,1.24-1.02,2.18c0,0.61,0.14,1.13,0.41,1.55c0.27,0.42,0.76,0.82,1.47,1.19
			c0.71,0.37,1.76,0.78,3.14,1.23c2.64,0.87,4.6,1.96,5.85,3.26c1.26,1.31,1.89,3.1,1.89,5.39c0,2.55-0.93,4.61-2.78,6.19
			c-1.85,1.58-4.36,2.37-7.52,2.37c-2.13,0-4.05-0.35-5.76-1.04c-1.71-0.69-3.13-1.64-4.26-2.83l3.05-3.34
			c2,1.81,4.24,2.71,6.72,2.71c1.35,0,2.41-0.31,3.17-0.94c0.76-0.63,1.14-1.52,1.14-2.68c0-1.1-0.32-1.95-0.97-2.56
			c-0.64-0.61-1.9-1.21-3.77-1.79c-2.93-0.97-5-2.08-6.19-3.34c-1.19-1.26-1.79-2.9-1.79-4.93c0-1.61,0.43-3.01,1.28-4.18
			c0.85-1.18,2.01-2.08,3.46-2.71c1.45-0.63,3.06-0.94,4.84-0.94C591.41,410.68,593.08,410.97,594.53,411.55z"/>
		<path class="st0" d="M617.75,438.63l-1.45-6.09h-7.93l-1.4,6.09h-6.1l7.93-27.38h7.26l7.93,27.38H617.75z M609.43,428.14h5.85
			l-2.95-12.48L609.43,428.14z"/>
		<path class="st0" d="M636.86,427.95h-2.66v10.69h-6.05v-27.38h8.17c3.68,0,6.42,0.69,8.25,2.08c1.82,1.39,2.73,3.42,2.73,6.1
			c0,1.81-0.4,3.31-1.21,4.5c-0.81,1.19-2.06,2.16-3.77,2.9l6.63,11.8h-6.68L636.86,427.95z M634.2,423.79h2.66
			c1.42,0,2.49-0.34,3.22-1.02c0.73-0.68,1.09-1.76,1.09-3.24c0-1.39-0.39-2.4-1.16-3.05c-0.77-0.64-1.98-0.97-3.63-0.97h-2.18
			V423.79z"/>
		<path class="st0" d="M659.59,411.26v27.38h-6.05v-27.38H659.59z"/>
		<path class="st0" d="M683.14,411.26l-0.63,4.35h-9.24v6.92h8.08v4.31h-8.08v7.4h9.87v4.4h-15.91v-27.38H683.14z"/>
		<path class="st0" d="M702.25,411.55c1.45,0.58,2.76,1.45,3.92,2.61l-2.8,3.24c-1.81-1.51-3.73-2.27-5.76-2.27
			c-1.16,0-2.08,0.26-2.76,0.77c-0.68,0.52-1.02,1.24-1.02,2.18c0,0.61,0.14,1.13,0.41,1.55c0.27,0.42,0.76,0.82,1.47,1.19
			c0.71,0.37,1.76,0.78,3.14,1.23c2.64,0.87,4.6,1.96,5.85,3.26c1.26,1.31,1.89,3.1,1.89,5.39c0,2.55-0.93,4.61-2.78,6.19
			c-1.85,1.58-4.36,2.37-7.52,2.37c-2.13,0-4.05-0.35-5.76-1.04c-1.71-0.69-3.13-1.64-4.26-2.83l3.05-3.34
			c2,1.81,4.24,2.71,6.72,2.71c1.35,0,2.41-0.31,3.17-0.94c0.76-0.63,1.14-1.52,1.14-2.68c0-1.1-0.32-1.95-0.97-2.56
			c-0.64-0.61-1.9-1.21-3.77-1.79c-2.93-0.97-5-2.08-6.19-3.34c-1.19-1.26-1.79-2.9-1.79-4.93c0-1.61,0.43-3.01,1.28-4.18
			c0.85-1.18,2.01-2.08,3.46-2.71c1.45-0.63,3.06-0.94,4.84-0.94C699.12,410.68,700.8,410.97,702.25,411.55z"/>
	</g>
</g>
<path class="st1" d="M227.19,164.79c7.6,2.82,14.92,7.16,21.98,13.01l-16.14,19.01c-9.46-7.91-19.7-11.83-30.7-11.76
	c-12.28,0.08-22.06,5.09-29.32,15.03c-7.27,9.94-10.83,25.51-10.69,46.73c0.14,20.89,3.91,36.29,11.32,46.21
	c7.4,9.92,17.4,14.84,30,14.75c6.38-0.04,12.03-1.28,16.96-3.7s10.41-5.89,16.44-10.4l14.96,19.04
	c-5.55,5.78-12.57,10.61-21.07,14.5c-8.51,3.88-18.02,5.86-28.55,5.93c-14.35,0.1-27.05-3.16-38.1-9.79
	c-11.05-6.63-19.65-16.41-25.8-29.37c-6.15-12.95-9.28-28.6-9.41-46.94c-0.12-18.02,2.92-33.51,9.14-46.47
	c6.21-12.96,14.71-22.83,25.51-29.6c10.79-6.77,22.97-10.2,36.53-10.3C210.61,160.6,219.59,161.97,227.19,164.79z"/>
<path class="st1" d="M518.4,165.49c8.63,3.29,16.72,8.34,24.26,15.15l-15.91,18.29c-5.77-4.9-11.62-8.5-17.54-10.77
	c-5.91-2.27-12.3-3.39-19.16-3.34c-7.66,0.05-13.83,1.81-18.5,5.27c-4.68,3.47-7,8.3-6.96,14.52c0.03,4.15,0.97,7.57,2.82,10.27
	c1.85,2.7,5.18,5.23,9.98,7.59c4.8,2.36,11.91,4.94,21.34,7.75c16.3,4.99,28.58,11.25,36.84,18.77
	c8.27,7.52,12.45,18.54,12.55,33.05c0.07,9.89-2.39,18.68-7.36,26.36c-4.97,7.69-12.15,13.72-21.53,18.09
	c-9.38,4.37-20.53,6.6-33.44,6.68c-12.6,0.09-23.9-1.87-33.89-5.87c-9.99-4-18.61-9.48-25.83-16.45l16.62-18.77
	c12.19,11.24,26.27,16.81,42.22,16.7c9.09-0.06,16.41-2.27,21.96-6.61c5.56-4.35,8.3-10.42,8.25-18.24
	c-0.03-4.78-1.02-8.73-2.95-11.82c-1.93-3.1-5.22-5.86-9.86-8.31c-4.64-2.44-11.36-4.98-20.15-7.64
	c-17.58-5.3-30.31-11.76-38.17-19.36c-7.87-7.6-11.84-17.62-11.93-30.06c-0.06-9.09,2.28-17.08,7.01-23.97
	c4.74-6.89,11.36-12.28,19.87-16.16c8.5-3.89,18.18-5.87,29.03-5.94C499.63,160.59,509.77,162.2,518.4,165.49z"/>
<g>
	<polygon class="st0" points="264.65,329.49 310.08,330.05 333.7,258.98 309.1,191.82 	"/>
	<polygon class="st1" points="358.46,185.33 312.19,185.31 364.84,329.49 410.85,329.77 	"/>
</g>
<g>
	<polygon class="st0" points="558.21,329.49 603.65,330.05 627.26,258.98 602.66,191.82 	"/>
	<polygon class="st1" points="652.02,185.33 604.96,185.38 658.4,329.49 704.41,329.77 	"/>
</g>
</svg>
