<?xml version="1.0" encoding="utf-8"?>
<!-- Generator: Adobe Illustrator 26.0.1, SVG Export Plug-In . SVG Version: 6.00 Build 0)  -->
<svg version="1.1" id="Layer_1" xmlns="http://www.w3.org/2000/svg" xmlns:xlink="http://www.w3.org/1999/xlink" x="0px" y="0px"
	 viewBox="0 0 1048.8 442.2" style="enable-background:new 0 0 1048.8 442.2;" xml:space="preserve">
<style type="text/css">
	.st0{opacity:0.55;fill:#001965;}
	.st1{fill:#001965;}
</style>
<path id="_x35_5_x25__opacity" class="st0" d="M120.5,57.8l-3.7,8.6c-2.2-0.9-4.8-1.3-7.4-1.3c-10.5,0-23.2,7.5-30,13.2v-8.3
	c6.1-5.3,18.6-13.4,32.4-13.4C114.8,56.7,117.8,57.1,120.5,57.8z M206.5,58l-2.2,8.3c13.6,4,23,18.8,23,39.6c0,2-0.2,4-0.4,6.1
	L237,113c0.2-2.4,0.4-4.8,0.4-7.4C237.4,79,224.7,62.4,206.5,58z M318.3,58.9l-30.9,81.3l5,12.5l37-93.8H318.3z M388.3,58l-2.2,8.3
	c13.6,4,23,18.8,23,39.6c0,2-0.2,4-0.4,6.1l10.1,1.1c0.2-2.4,0.4-4.8,0.4-7.4C419.2,79,406.5,62.4,388.3,58z M609.4,58l-2.2,8.3
	c13.6,4,23,18.8,23,39.6c0,2-0.2,4-0.4,6.1L640,113c0.2-2.4,0.4-4.8,0.4-7.4C640.3,79,627.6,62.4,609.4,58z M514.9,56.7
	c-13.8,0-26.3,8.1-32.4,13.4v8.3c6.8-5.7,19.5-13.2,30-13.2c2.6,0,5.2,0.4,7.4,1.3l3.7-8.6C520.7,57.1,517.8,56.7,514.9,56.7z
	 M659.6,152.7h10.1V83h-10.1V152.7z M755.1,65c9.6,0,20.1,3.7,25.6,6.8V63c-4-2.4-14-6.3-25.8-6.3c-17.8,0-33.9,9.6-41.2,27.4
	l9.8,3.3C729.2,73.6,740.8,65,755.1,65z M815.7,152.7h10.1V58.9h-10.1V152.7z M857.8,80.8c0-10.5,10.3-15.8,20.6-15.8
	c8.3,0,15.6,3.3,21.3,6.3h4.4v-8.5c-5-3.1-15.6-6.1-25.2-6.1c-15.3,0-30.7,8.8-31.3,24.3h10.1V80.8z M955.7,93.3l-6.6,7l30.4,52.4
	h12.3L955.7,93.3z"/>
<path id="Full_opacity" class="st1" d="M137.5,84.5v0.2v68.1h-10.1V84.7v-0.6c0-9.8-4.4-15.3-10.5-17.7l3.7-8.6
	C130.3,60.6,137.5,68.7,137.5,84.5z M77.7,58.9h-8.3v19.5v74.3h10.1V78.4v-8.3L77.7,58.9z M523.5,57.8l-3.7,8.6
	c6.1,2.4,10.5,7.9,10.5,17.7v0.6v68.1h10.1V84.7v-0.2C540.4,68.7,533.3,60.6,523.5,57.8z M480.6,58.9h-8.3v19.5v74.3h10.1V78.4v-8.3
	L480.6,58.9z M69.4,311.7h24.1v-75.6h16.7v-18.2H93.5v-7.2c0-9,5.3-10.5,10.7-10.5c2.9,0,6.8,0.6,8.8,1.3v-17.7
	c-3.1-1.1-8.1-1.7-12.7-1.7c-15.3,0-30.9,5.2-30.9,28v7.7H56.7v18.2h12.7L69.4,311.7z M161.9,314c24.8,0,44.5-16.6,44.5-49.3
	c0-31.6-19.3-48.9-44.5-48.9c-25.4,0-44.3,17.3-44.3,49.1C117.6,297.4,136.9,314,161.9,314z M161.9,295.6
	c-12.9,0-20.2-13.1-20.2-30.9c0-18.8,8.6-30.7,20.2-30.7s20.2,12.1,20.2,31.1C182.2,282.7,174.1,295.6,161.9,295.6z M221.6,311.7
	h24.3v-69.6c3.9-3.3,11.2-7.5,17.1-7.5c6.1,0,11.2,3.7,11.2,12.3v64.8h24.3v-66.1c0-21.9-12.1-30-27-30c-11.4,0-21.9,7.5-26.9,12.3
	l-1.8-10.1h-21.2V311.7z M350,314c13.2,0,21.3-7,24.7-10.1l1.8,7.9h21.7v-127h-24.3v35.7c-2.9-1.8-10.1-4.8-18.8-4.8
	c-22.6,0-41.8,18-41.8,51C313.4,300.9,331.2,314,350,314z M359,295.6c-10.1,0-21.3-7.2-21.3-29.8c0-18.8,9.2-31.8,22.3-31.8
	c5.3,0,10.9,2,14,3.9V290C371.7,291.7,366.2,295.6,359,295.6z M458,314c14.2,0,27.8-4.2,32.8-6.3v-18.6h-8.1
	c-5.2,3.1-12.9,6.4-20.6,6.4c-14.5,0-23.9-9.4-23.9-24.1v-1.7h54.3v-11c0-26.9-14.9-43.1-37.2-43.1c-22.3,0-41.4,15.5-41.4,49.1
	C413.8,296.5,428.7,314,458,314z M438.1,254.5v-1.7c0-11.2,7.7-19,16.4-19c8.6,0,15.5,7,15.5,18.2v2.4H438.1z M511,311.7h24.3v-69.6
	c3.9-3.3,11.2-7.5,17.1-7.5c6.1,0,11.2,3.7,11.2,12.3v64.8h24.3v-66.1c0-21.9-12.1-30-27-30c-11.4,0-21.9,7.5-26.9,12.3l-1.8-10.1
	H511V311.7z M226.9,111.9c-1.8,20.4-14,34.8-30.9,34.8c-17.7,0-28.7-13.8-30.7-33.7c-0.2-2.4-0.4-4.8-0.4-7.2c0-21,9.4-35.5,23-39.7
	c2.6-0.7,5.3-1.1,8.1-1.1c2.9,0,5.7,0.4,8.3,1.3l2.2-8.3c-3.3-0.9-6.8-1.3-10.5-1.3c-3.5,0-6.8,0.4-10.1,1.1
	c-18.2,4.4-31.1,21-31.1,47.8c0,2.9,0.2,5.7,0.4,8.5c2.9,27.2,19.7,40.8,40.8,40.8c21.3,0,38.6-14.2,41-42L226.9,111.9z
	 M287.4,140.2h-0.4l-31.5-81.3h-11.2l37,93.8h1.3h9.8L287.4,140.2z M408.7,111.9c-1.8,20.4-14,34.8-30.9,34.8
	c-17.7,0-28.7-13.8-30.7-33.7c-0.2-2.4-0.4-4.8-0.4-7.2c0-21,9.4-35.5,23-39.7c2.6-0.7,5.3-1.1,8.1-1.1c2.9,0,5.7,0.4,8.3,1.3
	l2.2-8.3c-3.3-0.9-6.8-1.3-10.5-1.3c-3.5,0-6.8,0.4-10.1,1.1c-18.2,4.4-31.1,21-31.1,47.8c0,2.9,0.2,5.7,0.4,8.5
	c2.9,27.2,19.7,40.8,40.8,40.8c21.3,0,38.6-14.2,41-42L408.7,111.9z M629.9,111.9c-1.8,20.4-14,34.8-30.9,34.8
	c-17.7,0-28.7-13.8-30.7-33.7c-0.2-2.4-0.4-4.8-0.4-7.2c0-21,9.4-35.5,23-39.7c2.6-0.7,5.3-1.1,8.1-1.1c2.9,0,5.7,0.4,8.3,1.3
	l2.2-8.3c-3.3-0.9-6.8-1.3-10.5-1.3c-3.5,0-6.8,0.4-10.1,1.1c-18.2,4.4-31.1,21-31.1,47.8c0,2.9,0.2,5.7,0.4,8.5
	c2.9,27.2,19.7,40.8,40.8,40.8c21.3,0,38.6-14.2,41-42L629.9,111.9z M669.5,74.4l-1.7-15.5h-8.3V83h10.1c4-5.2,13.2-14.5,26.5-14.5
	c1.8,0,4.4,0.2,5.3,0.4V56.7C686.8,56.7,674.1,66.6,669.5,74.4z M780.7,25.8V63v8.8v63.8c-3.9,3.3-14.2,11-27,11
	s-27.6-5.9-32.2-23.7c-1.1-4.2-1.8-9.4-1.8-15.1c0-7.5,1.3-14.5,3.9-20.4l-9.8-3.3c-2.8,6.6-4.2,14.5-4.2,23.6
	c0,7,0.9,13.2,2.6,18.6c6.1,20.4,22.6,28.7,39.9,28.7c15.6,0,25-7.2,28.9-10.3l1.7,8.1h8.3v-81v-46H780.7z M820.7,40.9
	c4.8,0,8.8-4,8.8-8.8s-4-8.8-8.8-8.8c-4.8,0-8.8,4-8.8,8.8S815.9,40.9,820.7,40.9z M857.8,81h-10.1v0.9c0,28.9,49.3,25.8,49.9,48
	v0.4c0,11.4-11,16.4-21.5,16.4c-8.3,0-17.8-3.7-24.5-6.8H847v8.5c4.6,3.3,18.6,6.6,28.2,6.6c15.8,0,32-8.8,32.6-25v-0.7
	C907.7,99.6,858.2,103.4,857.8,81z M976.9,58.9l-32,34.2l-9.9,10.7v-78h-10.1v127h10.1v-37.4l14.2-15.1l6.6-7l32.8-34.4H976.9z"/>
</svg>
