<?xml version="1.0" encoding="UTF-8"?>
<svg id="Ebene_1" xmlns="http://www.w3.org/2000/svg" version="1.1" viewBox="0 0 1877.7608 770.1754">
  <!-- Generator: Adobe Illustrator 29.2.1, SVG Export Plug-In . SVG Version: 2.1.0 Build 116)  -->
  <path d="M636.5662,647.654h-116.2568V0h260.154v116.2568h-143.8972v531.3972ZM1273.1309,263.5833h35.2832v95.3696h28.6553v-95.3696h35.0137v-24.8052h-98.9521v24.8052ZM1419.5879,355.6395c7.6709,4.1196,17.0596,6.1792,28.1641,6.1792s20.5059-2.0596,28.208-6.1792c7.7012-4.1191,13.5508-9.9399,17.5508-17.4619,3.999-7.522,6-16.3569,6-26.5063v-72.8931h-28.5664v72.8931c0,8.5376-2.1934,14.686-6.5811,18.4468-4.3887,3.7612-9.9268,5.6416-16.6113,5.6416-6.5684,0-12.0312-1.8804-16.3877-5.6416-4.3584-3.7607-6.5371-9.9092-6.5371-18.4468v-72.8931h-28.6562v72.8931c0,10.1494,1.9844,18.9844,5.9551,26.5063,3.9697,7.522,9.79,13.3428,17.4619,17.4619ZM1565.3272,279.2326l28.3877,68.5265h18.5361l26.9551-64.8482v76.0421h28.834v-120.1748h-39.4014l-25.4766,61.4191-25.4766-61.4191h-41.0137v120.1748h28.6553v-79.7203ZM1273.1309,469.1946h35.2832v95.3696h28.6553v-95.3696h35.0137v-24.8052h-98.9521v24.8052ZM1500.1377,564.5642v-120.1748h-28.9238v47.3716h-45.4023v-47.3716h-28.6553v120.1748h28.6553v-47.5508h45.4023v47.5508h28.9238ZM1539.4483,564.5642h28.6553v-120.1748h-28.6553v120.1748ZM1691.3203,564.5642h27.6709v-120.1748h-28.6562v69.7465l-46.2969-69.7465h-29.9092v120.1748h28.6553v-72.7628l48.5361,72.7628ZM1877.7608,564.5642l-56.7327-65.9686,53.3303-54.2062h-39.1328l-41.0137,42.9949v-42.9949h-28.835v120.1748h28.835v-38.712l7.7473-7.8745,39.1765,46.5865h36.625ZM1273.1309,674.8052h35.2832v95.3701h28.6553v-95.3701h35.0137v-24.8047h-98.9521v24.8047ZM1467.7207,650.0006l38.2373,120.1748h-30.1777l-6.5371-21.1338h-41.4609l-6.5371,21.1338h-30.4473l40.4766-120.1748h36.4463ZM1462.7061,727.8189l-13.6113-43.9688-14.0596,43.9688h27.6709ZM1612.5195,719.747l-46.2969-69.7465h-29.9092v120.1748h28.6553v-72.7628l48.5361,72.7628h27.6709v-120.1748h-28.6562v69.7465ZM1792.9609,650.0006h-39.1328l-41.0137,42.9944v-42.9944h-28.835v120.1748h28.835v-38.712l7.7473-7.8745,39.1765,46.5865h36.625l-56.7324-65.9688,53.3301-54.206ZM.0115,238.7781h109.9249v-116.2568H0l.0115,116.2568ZM260.1555,238.7781h143.8972v-116.2568H143.8988v647.654h116.2568V238.7781ZM1012.977,238.7781h143.8972s0-116.2568,0-116.2568h-260.154v647.654h116.2568V238.7781Z"/>
  <metadata>
    <sfw xmlns="http://ns.adobe.com/SaveForWeb/1.0/">
      <slices/>
      <sliceSourceBounds x="-7231" y="-3776.28" width="16383" height="3742.1" bottomLeftOrigin="true"/>
    </sfw>
  </metadata>
</svg>